:SAMPLES-PER-SECOND 30
:FULLY-SPECIFIED
:DEGREES
495
root  17.1143 37.6248 -29.6221 -144.802 88.5577 -145.039
RightUpLeg  -13.4519 -2.84294 6.8238
RightLeg  32.6906 -2.29751 -1.86023
RightFoot  -17.7408 -0.441077 -5.7377
RightToes  -8.14909e-010 0 -3.6325e-017
Spine  7.09198 -2.04599 8.85942
Spine1  5.44319 -1.25852 2.04914
HEad  -5.93952 -17.7321 -0.437291
LeftShoulder1  -0.252122 4.16862 -31.8061
LeftArm  4.65547 1.69512 -44.6516
LeftForeArm  13.1105 -21.8316 -4.43235
LeftHand  -0.0370508 5.07667 5.66657
RightShoulder  -0.733987 -5.60227 28.3069
RightArm  18.1412 -2.04392 46.0802
RightForeArm  11.952 21.7359 4.27998
RightHand  -0.0444083 2.67463 -0.860479
LeftUpLeg  -15.8429 5.1379 3.11472
LeftLeg  65.6663 -1.5989 -3.21092
LeftFoot  2.14743 0.799972 -6.81745
LeftToes  1.648e-009 -9.21574e-011 2.55256e-011
496
root  18.328 37.9884 -29.8495 -6.08453 88.985 -6.03778
RightUpLeg  -9.52268 -1.61335 4.75626
RightLeg  29.6846 -1.51986 -1.18294
RightFoot  -18.1233 -0.435177 -5.27914
RightToes  -8.14909e-010 0 -3.6325e-017
Spine  6.52241 -1.49491 8.77553
Spine1  5.83965 -0.467642 0.259349
HEad  -5.46776 -17.3235 -0.518319
LeftShoulder1  -0.247563 4.15828 -31.7014
LeftArm  5.53411 3.63665 -43.4058
LeftForeArm  15.0945 -20.6556 -4.6754
LeftHand  -0.0222492 5.39599 5.79719
RightShoulder  -0.841418 -5.87281 28.9173
RightArm  19.7948 -0.581878 46.4122
RightForeArm  11.1457 24.4924 4.63167
RightHand  -0.0787454 2.53819 -1.38579
LeftUpLeg  -19.0387 3.98636 2.3384
LeftLeg  61.3062 -1.49754 -2.39265
LeftFoot  0.402872 0.435966 -4.29449
LeftToes  1.648e-009 -9.21574e-011 2.55256e-011
497
root  19.5024 38.2485 -30.0669 26.1183 86.9829 26.5503
RightUpLeg  -5.81601 -0.349179 3.10884
RightLeg  27.0061 -0.750861 -0.689819
RightFoot  -18.5992 -0.399506 -4.31319
RightToes  -8.14909e-010 0 -3.6325e-017
Spine  6.74409 -0.946403 8.43578
Spine1  5.51088 0.128127 -0.478934
HEad  -4.52399 -16.7415 -1.53322
LeftShoulder1  -0.235475 4.12045 -32.0591
LeftArm  6.3483 6.15052 -41.9035
LeftForeArm  17.1546 -19.7837 -4.99147
LeftHand  -0.0150562 5.71507 5.34092
RightShoulder  -0.803048 -5.80713 28.2484
RightArm  20.0503 0.160599 47.3904
RightForeArm  11.8705 27.1863 5.22039
RightHand  -0.0518222 3.83804 -0.910963
LeftUpLeg  -21.3356 2.86483 2.29357
LeftLeg  54.5891 -1.63061 -1.97411
LeftFoot  -1.39511 0.362269 -4.06513
LeftToes  1.648e-009 -9.21574e-011 2.55256e-011
498
root  20.672 38.4222 -30.2948 22.3101 84.8826 22.9692
RightUpLeg  -2.33872 0.00958418 1.66716
RightLeg  24.1561 0.833692 -0.173148
RightFoot  -19.1142 -0.397954 -3.95262
RightToes  -8.14909e-010 0 -3.6325e-017
Spine  6.92488 -0.458122 8.61165
Spine1  5.29728 0.756265 -1.75457
HEad  -4.81659 -15.9831 -1.54736
LeftShoulder1  -0.219432 4.07725 -32.1419
LeftArm  5.76638 8.85017 -40.789
LeftForeArm  20.3789 -18.8206 -5.31214
LeftHand  0.00662096 6.60852 3.45043
RightShoulder  -0.799034 -5.79283 28.2874
RightArm  20.85 1.26069 47.8253
RightForeArm  12.8715 29.5858 5.72734
RightHand  -0.0659708 2.78903 -1.14282
LeftUpLeg  -22.7168 2.22073 2.68476
LeftLeg  45.4978 -1.97367 -1.76324
LeftFoot  -2.11988 0.300012 -3.56925
LeftToes  1.648e-009 -9.21574e-011 2.55256e-011
499
root  21.8472 38.5371 -30.496 21.3477 82.9193 21.8749
RightUpLeg  0.649386 -0.552145 0.28011
RightLeg  21.3878 3.42423 0.126867
RightFoot  -19.4735 -0.411746 -3.93561
RightToes  -8.14909e-010 0 -3.6325e-017
Spine  6.846 0.00168847 8.35742
Spine1  5.11071 1.24496 -2.89718
HEad  -5.99232 -15.3999 -0.327885
LeftShoulder1  -0.16548 3.9395 -31.8258
LeftArm  3.90174 12.0357 -40.2259
LeftForeArm  23.1393 -17.3561 -5.84826
LeftHand  -0.0120884 6.10751 3.2996
RightShoulder  -0.800036 -5.79085 28.3688
RightArm  22.0019 2.32946 48.1595
RightForeArm  12.9204 31.5473 6.20367
RightHand  -0.105727 3.4869 -1.63942
LeftUpLeg  -23.3331 1.34946 3.33444
LeftLeg  34.1846 -2.20892 -1.26989
LeftFoot  -1.99763 0.327399 -3.84793
LeftToes  1.648e-009 -9.21574e-011 2.55256e-011
500
root  23.0458 38.561 -30.6907 18.2091 81.2792 18.6929
RightUpLeg  3.86983 -2.38277 -1.03417
RightLeg  18.5143 7.18551 0.506839
RightFoot  -19.828 -0.43277 -4.02898
RightToes  -8.14909e-010 0 -3.6325e-017
Spine  6.82821 0.265168 7.98597
Spine1  5.05576 1.51101 -3.70689
HEad  -6.84022 -14.8271 1.38381
LeftShoulder1  -0.0999077 3.7725 -31.1623
LeftArm  1.24983 15.1828 -39.9331
LeftForeArm  26.6422 -15.4212 -6.45963
LeftHand  -0.0154595 6.98434 1.39553
RightShoulder  -0.837163 -5.8558 28.9557
RightArm  24.1547 3.95142 48.022
RightForeArm  12.4966 32.4936 6.46879
RightHand  -0.0813242 4.10696 -1.26002
LeftUpLeg  -22.819 0.566923 4.55901
LeftLeg  21.4738 -2.88467 -0.894266
LeftFoot  -1.13087 0.436832 -4.81626
LeftToes  1.648e-009 -9.21574e-011 2.55256e-011
501
root  24.2727 38.4959 -30.8807 15.6687 79.808 16.3665
RightUpLeg  7.23111 -3.67144 -2.37763
RightLeg  16.0057 10.3588 0.490564
RightFoot  -20.4412 -0.413773 -3.45586
RightToes  -8.14909e-010 0 -3.6325e-017
Spine  6.91299 0.444351 7.15176
Spine1  5.52445 1.60649 -3.75958
HEad  -7.39756 -14.1494 1.98116
LeftShoulder1  -0.129461 3.84413 -31.4712
LeftArm  -2.16885 17.8085 -39.3643
LeftForeArm  29.503 -13.262 -6.8796
LeftHand  -0.0223231 7.43034 0.967996
RightShoulder  -0.967416 -6.1918 29.4139
RightArm  25.7983 5.67834 48.0353
RightForeArm  12.8245 32.6303 6.48555
RightHand  -0.0697664 3.74508 -1.1414
LeftUpLeg  -21.821 0.927144 5.24803
LeftLeg  9.93831 -4.70503 -0.113021
LeftFoot  -1.07222 0.518616 -5.69742
LeftToes  1.648e-009 -9.21574e-011 2.55256e-011
502
root  25.5324 38.3506 -31.1019 14.6564 78.3216 15.7861
RightUpLeg  10.4317 -4.14493 -4.14311
RightLeg  14.3015 12.6728 0.544201
RightFoot  -21.2746 -0.400743 -2.95768
RightToes  -8.14909e-010 0 -3.6325e-017
Spine  6.36027 0.64998 5.25623
Spine1  7.39231 1.50667 -2.63758
HEad  -7.45677 -13.666 1.81443
LeftShoulder1  -0.28836 4.24412 -32.8936
LeftArm  -4.78537 18.9132 -38.2293
LeftForeArm  32.3681 -10.4438 -7.17026
LeftHand  -0.0535856 7.70651 -0.50249
RightShoulder  -0.876331 -5.99636 28.5571
RightArm  26.1851 6.8 49.1714
RightForeArm  11.9768 31.3487 6.20959
RightHand  -0.142763 3.74325 -2.07212
LeftUpLeg  -21.258 3.87437 4.4473
LeftLeg  2.71213 -6.66889 0.901108
LeftFoot  -1.70911 0.535529 -6.25111
LeftToes  1.648e-009 -9.21574e-011 2.55256e-011
503
root  26.9138 38.0424 -31.3998 14.8185 77.1488 16.5635
RightUpLeg  13.008 -3.27469 -5.94974
RightLeg  14.6015 13.4056 0.731844
RightFoot  -23.0667 -0.338551 -1.80001
RightToes  -8.14909e-010 0 -3.6325e-017
Spine  6.07494 0.616964 4.69036
Spine1  8.50457 1.6907 -3.50346
HEad  -7.76453 -13.1993 3.07788
LeftShoulder1  -0.179007 3.97043 -32.2082
LeftArm  -7.63043 19.991 -38.5823
LeftForeArm  35.704 -7.0341 -6.73859
LeftHand  -0.0826262 7.73083 -1.87136
RightShoulder  -0.972922 -6.21634 29.3315
RightArm  26.3483 7.41701 49.2463
RightForeArm  11.5381 29.457 5.77098
RightHand  -0.0701688 3.75586 -1.15155
LeftUpLeg  -21.1292 4.35814 4.10354
LeftLeg  1.34446 -2.998 0.458079
LeftFoot  -2.96103 0.548623 -7.19956
LeftToes  1.648e-009 -9.21574e-011 2.55256e-011
504
root  28.4118 37.6549 -31.7241 15.1953 76.2384 17.2994
RightUpLeg  14.8895 -0.439516 -7.19588
RightLeg  16.1015 12.0522 1.30975
RightFoot  -24.974 -0.161802 0.0778119
RightToes  -8.14909e-010 0 -3.6325e-017
Spine  6.48951 0.475195 4.2386
Spine1  7.46505 1.76496 -4.54029
HEad  -8.03533 -12.9562 4.19504
LeftShoulder1  -0.113769 3.8091 -31.2287
LeftArm  -7.77822 21.6943 -38.5395
LeftForeArm  36.9323 -4.54806 -6.43331
LeftHand  -0.0465743 8.12493 -0.143373
RightShoulder  -0.883181 -5.92552 29.856
RightArm  25.6828 5.75084 49.3328
RightForeArm  10.726 26.9711 5.21761
RightHand  -0.108414 3.54901 -1.65987
LeftUpLeg  -22.0112 3.87605 3.2321
LeftLeg  5.58113 0.21129 0.335918
LeftFoot  -2.13185 0.535448 -6.66153
LeftToes  1.648e-009 -9.21574e-011 2.55256e-011
505
root  29.9603 37.3342 -32.0696 16.0688 75.3018 18.3663
RightUpLeg  16.4836 4.58097 -7.76341
RightLeg  17.7603 8.6026 1.95858
RightFoot  -25.655 0.176509 2.7582
RightToes  -8.14909e-010 0 -3.6325e-017
Spine  4.57474 0.944547 4.15868
Spine1  10.2789 2.56734 -5.60439
HEad  -7.69476 -14.5878 3.79288
LeftShoulder1  -0.0907273 3.74327 -31.5808
LeftArm  -8.53171 20.7214 -38.5153
LeftForeArm  39.9056 -3.05315 -5.88944
LeftHand  -0.147731 8.92105 -2.71229
RightShoulder  -1.07329 -6.42056 30.2609
RightArm  24.7579 5.28567 48.921
RightForeArm  9.29838 23.7594 4.68844
RightHand  -0.127987 3.4802 -1.92296
LeftUpLeg  -23.3307 3.5407 1.85114
LeftLeg  11.6553 -0.189392 0.210637
LeftFoot  3.13637 0.628528 -4.96524
LeftToes  1.648e-009 -9.21574e-011 2.55256e-011
506
root  31.528 36.9861 -32.3976 17.5065 74.3307 21.009
RightUpLeg  17.9581 8.32222 -8.91763
RightLeg  21.9194 6.66558 2.83873
RightFoot  -25.8001 0.739497 7.19231
RightToes  -8.14909e-010 0 -3.6325e-017
Spine  5.831 1.04665 2.14907
Spine1  9.45886 2.41372 -5.222
HEad  -7.93642 -15.5212 4.26041
LeftShoulder1  -0.230748 4.10592 -32.2338
LeftArm  -7.86244 20.9896 -37.2643
LeftForeArm  40.6375 -3.0705 -6.09718
LeftHand  -0.288254 9.48985 -6.38226
RightShoulder  -1.08937 -6.42392 30.7653
RightArm  24.262 4.01505 48.0339
RightForeArm  9.04547 19.6856 4.90024
RightHand  -0.137583 3.87891 -1.98595
LeftUpLeg  -23.3347 4.24249 0.0208712
LeftLeg  17.2682 -1.58693 -0.284477
LeftFoot  7.02782 0.85505 -5.51971
LeftToes  1.648e-009 -9.21574e-011 2.55256e-011
